HIERARCHY
ROOT Hips
{
	OFFSET 0.000000 100.481300 0.000000
	CHANNELS 6 Xposition Yposition Zposition Xrotation Yrotation Zrotation 
	JOINT Spine
	{
		OFFSET -0.279200 12.230698 -2.892100
		CHANNELS 3 Xrotation Yrotation Zrotation
		JOINT Spine1
		{
			OFFSET -0.232667 10.192268 -1.242267
			CHANNELS 3 Xrotation Yrotation Zrotation
			JOINT Spine1_split
			{
				OFFSET -0.232667 10.192268 -1.242267
				CHANNELS 3 Xrotation Yrotation Zrotation
				JOINT Spine2
				{
					OFFSET -0.232667 10.192268 -1.242267
					CHANNELS 3 Xrotation Yrotation Zrotation
					JOINT Neck
					{
						OFFSET -0.418800 17.814194 8.416900
						CHANNELS 3 Xrotation Yrotation Zrotation
						JOINT Head
						{
							OFFSET 0.000000 7.031097 3.806800
							CHANNELS 3 Xrotation Yrotation Zrotation
							JOINT HeadTop_End
							{
								OFFSET 0.000000 24.646606 12.978600
								CHANNELS 3 Xrotation Yrotation Zrotation
								End Site
								{
									OFFSET 0.000000 0.000000 0.000000
								}
							}
						}
					}
					JOINT LeftShoulder
					{
						OFFSET 8.476499 7.247704 -3.868750
						CHANNELS 3 Xrotation Yrotation Zrotation
						JOINT LeftShoulder_split
						{
							OFFSET 8.476499 7.247704 -3.868750
							CHANNELS 3 Xrotation Yrotation Zrotation
							JOINT LeftArm
							{
								OFFSET 9.308998 -2.777710 0.208600
								CHANNELS 3 Xrotation Yrotation Zrotation
								JOINT LeftForeArm
								{
									OFFSET 29.972298 0.000000 0.000000
									CHANNELS 3 Xrotation Yrotation Zrotation
									JOINT LeftHand
									{
										OFFSET 26.026505 0.000000 0.000000
										CHANNELS 3 Xrotation Yrotation Zrotation
										JOINT LeftHandThumb1
										{
											OFFSET 12.240501 -7.147949 9.207150
											CHANNELS 3 Xrotation Yrotation Zrotation
											JOINT LeftHandThumb2
											{
												OFFSET 4.138618 -2.389435 2.389433
												CHANNELS 3 Xrotation Yrotation Zrotation
												JOINT LeftHandThumb3
												{
													OFFSET 2.726913 -1.574387 1.574386
													CHANNELS 3 Xrotation Yrotation Zrotation
													JOINT LeftHandThumb4
													{
														OFFSET 3.941010 -2.275345 2.275342
														CHANNELS 3 Xrotation Yrotation Zrotation
														End Site
														{
															OFFSET 0.000000 0.000000 0.000000
														}
													}
												}
											}
										}
										JOINT LeftHandIndex1
										{
											OFFSET 24.424698 -1.985611 5.953459
											CHANNELS 3 Xrotation Yrotation Zrotation
											JOINT LeftHandIndex2
											{
												OFFSET 6.426697 0.000000 0.000000
												CHANNELS 3 Xrotation Yrotation Zrotation
												JOINT LeftHandIndex3
												{
													OFFSET 5.337898 0.000000 0.000000
													CHANNELS 3 Xrotation Yrotation Zrotation
													JOINT LeftHandIndex4
													{
														OFFSET 4.409401 0.000000 0.000000
														CHANNELS 3 Xrotation Yrotation Zrotation
														End Site
														{
															OFFSET 0.000000 0.000000 0.000000
														}
													}
												}
											}
										}
										JOINT LeftHandMiddle1
										{
											OFFSET 23.810104 0.000000 0.000000
											CHANNELS 3 Xrotation Yrotation Zrotation
											JOINT LeftHandMiddle2
											{
												OFFSET 7.176498 0.000000 0.000000
												CHANNELS 3 Xrotation Yrotation Zrotation
												JOINT LeftHandMiddle3
												{
													OFFSET 6.774902 0.000000 0.000000
													CHANNELS 3 Xrotation Yrotation Zrotation
													JOINT LeftHandMiddle4
													{
														OFFSET 5.403328 0.000000 0.000000
														CHANNELS 3 Xrotation Yrotation Zrotation
														End Site
														{
															OFFSET 0.000000 0.000000 0.000000
														}
													}
												}
											}
										}
										JOINT LeftHandRing1
										{
											OFFSET 22.908401 -0.839279 -6.020567
											CHANNELS 3 Xrotation Yrotation Zrotation
											JOINT LeftHandRing2
											{
												OFFSET 6.337502 0.000000 0.000000
												CHANNELS 3 Xrotation Yrotation Zrotation
												JOINT LeftHandRing3
												{
													OFFSET 5.779297 0.000000 0.000000
													CHANNELS 3 Xrotation Yrotation Zrotation
													JOINT LeftHandRing4
													{
														OFFSET 4.965698 0.000000 0.000000
														CHANNELS 3 Xrotation Yrotation Zrotation
														End Site
														{
															OFFSET 0.000000 0.000000 0.000000
														}
													}
												}
											}
										}
										JOINT LeftHandPinky1
										{
											OFFSET 20.037003 -1.530319 -10.950146
											CHANNELS 3 Xrotation Yrotation Zrotation
											JOINT LeftHandPinky2
											{
												OFFSET 5.254700 0.000000 0.000000
												CHANNELS 3 Xrotation Yrotation Zrotation
												JOINT LeftHandPinky3
												{
													OFFSET 4.810204 0.000000 0.000000
													CHANNELS 3 Xrotation Yrotation Zrotation
													JOINT LeftHandPinky4
													{
														OFFSET 3.647202 0.000000 0.000000
														CHANNELS 3 Xrotation Yrotation Zrotation
														End Site
														{
															OFFSET 0.000000 0.000000 0.000000
														}
													}
												}
											}
										}
									}
								}
							}
						}
					}
					JOINT RightShoulder
					{
						OFFSET -7.570500 7.247704 -3.868750
						CHANNELS 3 Xrotation Yrotation Zrotation
						JOINT RightShoulder_split
						{
							OFFSET -7.570500 7.247704 -3.868750
							CHANNELS 3 Xrotation Yrotation Zrotation
							JOINT RightArm
							{
								OFFSET -9.308998 -2.777710 0.208500
								CHANNELS 3 Xrotation Yrotation Zrotation
								JOINT RightForeArm
								{
									OFFSET -29.972300 0.000000 0.000000
									CHANNELS 3 Xrotation Yrotation Zrotation
									JOINT RightHand
									{
										OFFSET -26.026505 0.000000 0.000000
										CHANNELS 3 Xrotation Yrotation Zrotation
										JOINT RightHandThumb1
										{
											OFFSET -12.240601 -7.148026 9.207092
											CHANNELS 3 Xrotation Yrotation Zrotation
											JOINT RightHandThumb2
											{
												OFFSET -4.138618 -2.389435 2.389433
												CHANNELS 3 Xrotation Yrotation Zrotation
												JOINT RightHandThumb3
												{
													OFFSET -2.726974 -1.574417 1.574421
													CHANNELS 3 Xrotation Yrotation Zrotation
													JOINT RightHandThumb4
													{
														OFFSET -3.941010 -2.275345 2.275343
														CHANNELS 3 Xrotation Yrotation Zrotation
														End Site
														{
															OFFSET 0.000000 0.000000 0.000000
														}
													}
												}
											}
										}
										JOINT RightHandIndex1
										{
											OFFSET -24.424698 -1.985657 5.953444
											CHANNELS 3 Xrotation Yrotation Zrotation
											JOINT RightHandIndex2
											{
												OFFSET -6.426697 0.000000 0.000000
												CHANNELS 3 Xrotation Yrotation Zrotation
												JOINT RightHandIndex3
												{
													OFFSET -5.337898 0.000000 0.000000
													CHANNELS 3 Xrotation Yrotation Zrotation
													JOINT RightHandIndex4
													{
														OFFSET -4.409401 0.000000 0.000000
														CHANNELS 3 Xrotation Yrotation Zrotation
														End Site
														{
															OFFSET 0.000000 0.000000 0.000000
														}
													}
												}
											}
										}
										JOINT RightHandMiddle1
										{
											OFFSET -23.810097 0.000000 0.000000
											CHANNELS 3 Xrotation Yrotation Zrotation
											JOINT RightHandMiddle2
											{
												OFFSET -7.176498 0.000000 0.000000
												CHANNELS 3 Xrotation Yrotation Zrotation
												JOINT RightHandMiddle3
												{
													OFFSET -6.774902 0.000000 0.000000
													CHANNELS 3 Xrotation Yrotation Zrotation
													JOINT RightHandMiddle4
													{
														OFFSET -5.403328 0.000000 0.000000
														CHANNELS 3 Xrotation Yrotation Zrotation
														End Site
														{
															OFFSET 0.000000 0.000000 0.000000
														}
													}
												}
											}
										}
										JOINT RightHandRing1
										{
											OFFSET -22.908302 -0.839325 -6.020576
											CHANNELS 3 Xrotation Yrotation Zrotation
											JOINT RightHandRing2
											{
												OFFSET -6.337502 0.000000 0.000000
												CHANNELS 3 Xrotation Yrotation Zrotation
												JOINT RightHandRing3
												{
													OFFSET -5.779297 0.000000 0.000000
													CHANNELS 3 Xrotation Yrotation Zrotation
													JOINT RightHandRing4
													{
														OFFSET -4.965698 0.000000 0.000000
														CHANNELS 3 Xrotation Yrotation Zrotation
														End Site
														{
															OFFSET 0.000000 0.000000 0.000000
														}
													}
												}
											}
										}
										JOINT RightHandPinky1
										{
											OFFSET -20.037003 -1.530334 -10.950259
											CHANNELS 3 Xrotation Yrotation Zrotation
											JOINT RightHandPinky2
											{
												OFFSET -5.254700 0.000000 0.000000
												CHANNELS 3 Xrotation Yrotation Zrotation
												JOINT RightHandPinky3
												{
													OFFSET -4.810204 0.000000 0.000000
													CHANNELS 3 Xrotation Yrotation Zrotation
													JOINT RightHandPinky4
													{
														OFFSET -3.647202 0.000000 0.000000
														CHANNELS 3 Xrotation Yrotation Zrotation
														End Site
														{
															OFFSET 0.000000 0.000000 0.000000
														}
													}
												}
											}
										}
									}
								}
							}
						}
					}
				}
			}
		}
	}
	JOINT LeftUpLeg
	{
		OFFSET 15.427100 -6.655098 0.678600
		CHANNELS 3 Xrotation Yrotation Zrotation
		JOINT LeftLeg
		{
			OFFSET 4.081073 -39.591068 13.024000
			CHANNELS 3 Xrotation Yrotation Zrotation
			JOINT LeftFoot
			{
				OFFSET -4.081074 -37.707932 -15.979700
				CHANNELS 3 Xrotation Yrotation Zrotation
				JOINT LeftToeBase
				{
					OFFSET 5.346399 -15.068900 20.645000
					CHANNELS 3 Xrotation Yrotation Zrotation
					JOINT LeftToe_End
					{
						OFFSET 2.754700 0.931300 11.300900
						CHANNELS 3 Xrotation Yrotation Zrotation
						End Site
						{
							OFFSET 0.000000 0.000000 0.000000
						}
					}
				}
			}
		}
	}
	JOINT RightUpLeg
	{
		OFFSET -15.569500 -6.655098 0.678600
		CHANNELS 3 Xrotation Yrotation Zrotation
		JOINT RightLeg
		{
			OFFSET -4.081825 -39.591045 13.023800
			CHANNELS 3 Xrotation Yrotation Zrotation
			JOINT RightFoot
			{
				OFFSET 4.081824 -37.707954 -15.979600
				CHANNELS 3 Xrotation Yrotation Zrotation
				JOINT RightToeBase
				{
					OFFSET -5.346400 -15.068900 20.645000
					CHANNELS 3 Xrotation Yrotation Zrotation
					JOINT RightToe_End
					{
						OFFSET -2.754700 0.931300 11.300900
						CHANNELS 3 Xrotation Yrotation Zrotation
						End Site
						{
							OFFSET 0.000000 0.000000 0.000000
						}
					}
				}
			}
		}
	}
}
MOTION
Frames: 5
Frame Time: 0.016667
-0.388457 83.491463 -1.285233 22.603917 -0.637143 -8.641464 8.852048 3.831381 2.097203 -0.486226 1.376179 -0.738724 0.000000 0.000000 0.000000 -0.484351 1.393122 -0.752146 -12.183783 0.616443 0.895269 -13.200941 5.313710 -4.930405 -0.000000 -0.000000 0.000001 0.800065 -1.053361 -19.763345 0.000000 0.000000 0.000000 13.552906 -1.213098 -48.473050 0.000009 -65.396848 0.000039 -23.458473 12.668263 -19.629229 74.823985 -40.508138 61.030322 25.114396 4.278481 -82.291820 42.097284 21.884823 -34.007290 0.000005 -0.000000 0.000000 5.834359 7.878498 -78.812890 5.407302 5.834269 -85.642834 1.801536 4.226824 -46.153566 0.000000 -0.000002 0.000001 4.932094 8.202272 -90.163387 4.700893 5.737289 -78.644082 3.117985 5.175476 -62.112115 -0.000001 0.000000 -0.000001 4.402392 8.246175 -91.663188 5.862433 5.851055 -90.111499 1.899121 4.318173 -47.463357 0.000001 -0.000000 0.000001 5.304499 8.410000 -100.449256 2.535405 4.823627 -55.434625 1.956144 4.369660 -48.216160 0.000001 0.000001 0.000001 0.203543 7.873808 19.585055 0.000000 0.000000 0.000000 11.893558 -9.449220 48.231620 -0.000001 63.146991 0.000011 -2.319519 -16.349537 7.973145 47.809705 35.835421 -5.333809 34.631354 -33.014478 35.094605 42.386303 -17.521915 37.753621 -0.000002 0.000003 -0.000000 5.182520 -7.113266 78.876261 4.422127 -4.651260 87.104030 2.569878 -4.164145 63.347177 0.000003 0.000000 -0.000000 7.506142 -6.722314 94.665056 4.366845 -4.648126 86.421953 2.874989 -4.303387 67.478307 0.000002 0.000001 0.000000 5.682780 -6.829435 102.073858 3.638043 -4.544535 77.346237 2.856133 -4.295533 67.226676 -0.000000 0.000002 0.000001 5.373747 -6.885361 99.411771 1.706930 -3.605105 50.661323 2.448578 -4.101180 61.664239 0.000003 0.000000 -0.000002 -54.194143 0.146465 -2.146704 67.872737 -0.879237 3.852367 6.831612 0.720052 6.765985 -39.536393 -1.822418 2.160043 0.000000 0.000001 -0.000000 -34.341655 -12.631421 2.021627 38.883703 -2.900952 2.718833 -25.772962 -1.900269 3.911745 -2.186249 0.000000 -0.000003 -0.000000 0.000000 -0.000000 
-1.073719 83.052673 1.478481 22.901787 -0.733417 -8.437430 8.621173 4.130988 1.721402 -0.496557 1.450543 -0.731988 0.000000 0.000000 0.000000 -0.476999 1.478102 -0.752148 -12.234351 0.523660 0.936671 -13.473428 5.168246 -4.687935 0.000000 -0.000000 -0.000000 0.809852 -1.055533 -19.698327 0.000000 0.000000 0.000000 13.400041 -1.470146 -48.429374 0.000001 -65.609267 -0.000011 -23.708568 13.002242 -19.426745 74.823985 -40.508131 61.030322 25.166964 4.373178 -82.354405 42.157058 21.874371 -34.059503 -0.000000 -0.000000 -0.000001 5.840190 7.879080 -78.844985 5.407302 5.834269 -85.642834 1.800383 4.225726 -46.137945 -0.000001 -0.000000 -0.000001 4.933140 8.202444 -90.173694 4.700469 5.737205 -78.639806 3.117211 5.175070 -62.103522 -0.000002 -0.000000 0.000002 4.398822 8.245266 -91.628443 5.862144 5.851059 -90.108630 1.899771 4.318775 -47.472024 -0.000002 0.000000 -0.000004 5.300712 8.409614 -100.413425 2.530732 4.820414 -55.379017 1.956822 4.370273 -48.225097 0.000000 -0.000000 -0.000001 0.179701 8.056685 19.469473 0.000000 0.000000 0.000000 11.883975 -9.750497 48.141021 -0.000011 64.191457 0.000006 -2.283724 -16.744890 8.133056 47.809699 35.835417 -5.333809 34.631351 -33.014478 35.094605 42.252196 -17.581484 37.606530 0.000003 0.000003 -0.000003 5.188549 -7.114441 78.876527 4.422133 -4.651254 87.104064 2.569299 -4.163851 63.339131 0.000002 0.000004 -0.000002 7.510148 -6.722918 94.643192 4.366595 -4.648116 86.418805 2.874748 -4.303279 67.474947 -0.000000 0.000001 0.000001 5.680137 -6.829997 102.040349 3.638050 -4.544521 77.346237 2.856126 -4.295533 67.226670 0.000000 -0.000000 -0.000001 5.371711 -6.885647 99.386404 1.706650 -3.604875 50.656965 2.448165 -4.100959 61.658406 0.000004 0.000000 -0.000002 -58.273876 1.228516 -3.006960 68.100770 -1.577537 4.025186 5.039478 1.360563 6.516787 -32.930808 -1.774708 2.780109 -0.000000 0.000000 -0.000000 -32.079647 -12.654664 2.612536 38.894386 -2.562849 2.739317 -28.407436 -1.928196 3.617447 -2.186253 -0.000001 0.000000 -0.000000 -0.000001 -0.000000 
-1.753924 82.679947 4.234306 23.203577 -0.827574 -8.206827 8.394099 4.424199 1.321109 -0.507238 1.525118 -0.724555 0.000000 0.000000 0.000000 -0.469546 1.563697 -0.748853 -12.284886 0.430358 0.978018 -13.746423 5.022098 -4.445270 0.000001 0.000001 -0.000000 0.829637 -1.055379 -19.576797 0.000000 0.000000 0.000000 13.303915 -1.693175 -48.524331 -0.000002 -65.794304 -0.000004 -24.000860 13.236744 -19.197119 74.823985 -40.508138 61.030322 25.309105 4.629905 -82.525624 42.319941 21.845235 -34.201790 -0.000003 0.000000 0.000001 5.855884 7.880574 -78.934406 5.407302 5.834267 -85.642854 1.797003 4.222477 -46.092026 -0.000002 -0.000000 -0.000002 4.936103 8.202944 -90.202654 4.699358 5.736986 -78.628714 3.115130 5.173979 -62.080443 -0.000001 0.000001 0.000003 4.389612 8.242903 -91.538830 5.861334 5.851056 -90.100700 1.901641 4.320478 -47.496835 0.000001 0.000000 -0.000001 5.290363 8.408562 -100.315507 2.518112 4.811711 -55.228732 1.958688 4.371932 -48.249576 -0.000001 0.000001 -0.000005 0.162758 8.201811 19.240264 0.000000 0.000000 0.000000 12.013078 -10.084086 48.107423 0.000012 65.513214 -0.000024 -2.194446 -17.182507 8.317055 47.809695 35.835421 -5.333809 34.631354 -33.014478 35.094601 41.903364 -17.731373 37.225525 -0.000000 0.000000 -0.000001 5.206648 -7.117981 78.877278 4.422147 -4.651244 87.104071 2.567698 -4.163051 63.317076 -0.000002 0.000002 -0.000005 7.521373 -6.724538 94.584548 4.365939 -4.648070 86.410683 2.874098 -4.303005 67.466307 0.000001 -0.000004 0.000002 5.673249 -6.831457 101.953858 3.638490 -4.544638 77.351810 2.856138 -4.295530 67.226656 0.000000 0.000001 0.000001 5.371518 -6.885571 99.321128 1.705948 -3.604306 50.645778 2.447093 -4.100377 61.643270 0.000002 0.000000 -0.000001 -62.077090 2.360275 -3.826214 67.817064 -2.354760 4.191261 3.480520 2.083616 6.299677 -25.339546 -1.565613 3.496328 -0.000000 0.000000 0.000000 -29.647860 -12.798672 3.237352 38.519726 -2.168935 2.628051 -30.854417 -1.904325 3.304803 -2.186250 -0.000005 0.000000 -0.000000 0.000000 0.000000 
-2.425975 82.318085 6.989113 23.534329 -0.930417 -7.918915 8.165082 4.702298 0.874352 -0.520802 1.601803 -0.710188 0.000000 0.000000 0.000000 -0.460747 1.655478 -0.739867 -12.336262 0.331893 1.018787 -14.027066 4.875319 -4.190917 0.000000 -0.000001 -0.000000 0.857951 -1.055085 -19.402802 0.000000 0.000000 0.000000 13.266428 -1.833214 -48.691623 0.000020 -65.913846 0.000031 -24.290248 13.359658 -18.989956 74.823985 -40.508134 61.030315 25.517162 5.007346 -82.781661 42.561101 21.800436 -34.412583 0.000002 -0.000000 0.000001 5.878717 7.882562 -79.070894 5.407303 5.834268 -85.642834 1.791482 4.217173 -46.017016 -0.000001 -0.000001 -0.000002 4.940651 8.203693 -90.247249 4.697845 5.736679 -78.613592 3.112121 5.172385 -62.047057 0.000001 0.000000 -0.000000 4.377026 8.239650 -91.416345 5.860112 5.851060 -90.088747 1.904582 4.323167 -47.535846 0.000001 -0.000000 -0.000001 5.274971 8.406956 -100.169854 2.499674 4.798901 -55.008639 1.961464 4.374399 -48.285981 0.000000 -0.000001 -0.000002 0.154742 8.315181 18.934697 0.000000 0.000000 0.000000 12.291670 -10.409285 48.204354 0.000017 66.924454 -0.000034 -2.085138 -17.592971 8.432636 47.809699 35.835417 -5.333810 34.631347 -33.014474 35.094601 41.419357 -17.927549 36.700731 -0.000001 0.000002 -0.000005 5.237255 -7.123806 78.883979 4.422142 -4.651242 87.104064 2.565314 -4.161866 63.284209 -0.000000 0.000001 -0.000000 7.538621 -6.726846 94.499642 4.365035 -4.648017 86.399591 2.873204 -4.302636 67.454470 -0.000000 -0.000003 -0.000007 5.663849 -6.833415 101.835600 3.639149 -4.544775 77.360212 2.856394 -4.295648 67.230174 0.000001 -0.000004 -0.000000 5.371746 -6.885393 99.231864 1.704983 -3.603527 50.630457 2.445606 -4.099578 61.622609 0.000000 0.000000 -0.000001 -65.689727 3.446890 -4.602185 67.028499 -3.184127 4.302036 2.120598 2.961865 6.042612 -16.809350 -1.110256 4.232892 0.000000 -0.000000 -0.000000 -27.148617 -13.015799 3.831762 37.892301 -1.710033 2.426535 -33.148233 -1.839828 3.004347 -2.186252 0.000006 -0.000001 0.000000 -0.000001 -0.000000 
-3.084286 81.855400 9.759411 23.947687 -1.061419 -7.501480 7.922298 4.943096 0.328209 -0.542838 1.684606 -0.675692 0.000000 0.000000 0.000000 -0.447987 1.765198 -0.714382 -12.390376 0.218421 1.057884 -14.330317 4.724051 -3.900794 0.000000 0.000000 -0.000000 0.892449 -1.054610 -19.190873 0.000000 0.000000 0.000000 13.312133 -1.847653 -48.806957 0.000011 -65.962190 0.000008 -24.536293 13.414688 -18.850472 74.823985 -40.508134 61.030322 25.767558 5.464280 -83.098431 42.855779 21.742931 -34.670344 -0.000001 0.000001 0.000001 5.905980 7.884650 -79.244183 5.407303 5.834269 -85.642854 1.783934 4.209886 -45.914222 -0.000001 0.000001 -0.000003 4.946496 8.204664 -90.304451 4.696201 5.736349 -78.597145 3.108549 5.170495 -62.007435 -0.000001 -0.000001 0.000002 4.363320 8.236078 -91.282876 5.858599 5.851059 -90.073898 1.908463 4.326702 -47.587301 0.000000 0.000000 -0.000002 5.256056 8.404934 -99.990725 2.477531 4.783378 -54.743498 1.964874 4.377430 -48.330695 -0.000001 0.000000 -0.000003 0.153496 8.439839 18.609351 0.000000 0.000000 0.000000 12.697644 -10.683109 48.523050 0.000005 68.139395 -0.000020 -2.018142 -17.890922 8.368087 47.809699 35.835414 -5.333810 34.631354 -33.014478 35.094605 40.883183 -18.129509 36.124150 -0.000000 0.000004 -0.000005 5.280349 -7.131929 78.896328 4.422133 -4.651249 87.104050 2.562374 -4.160382 63.243638 -0.000002 0.000001 -0.000000 7.560684 -6.729547 94.398911 4.364062 -4.647937 86.387529 2.872246 -4.302239 67.441602 -0.000003 -0.000001 -0.000001 5.653598 -6.835541 101.706728 3.639978 -4.544970 77.370600 2.856807 -4.295817 67.235754 -0.000001 -0.000002 0.000001 5.372848 -6.885072 99.134643 1.703933 -3.602664 50.613758 2.444003 -4.098709 61.600131 0.000004 -0.000001 -0.000001 -69.313723 4.330201 -5.330040 65.688477 -4.002031 4.265905 0.947624 4.172973 5.623789 -8.074135 -0.278106 3.289992 0.000000 -0.000000 -0.000000 -24.764663 -13.260119 4.275512 37.278845 -1.157053 2.177018 -35.418366 -1.746487 2.741086 -2.186250 -0.000001 -0.000001 -0.000000 0.000000 0.000000 
